<svg width="33" height="33" viewBox="0 0 33 33" fill="none" xmlns="http://www.w3.org/2000/svg">
<g id="Icon">
<path id="Vector" d="M11.7205 12.8396L16.8939 18.0129L22.0672 12.8396C22.1906 12.7161 22.3372 12.6182 22.4985 12.5514C22.6597 12.4846 22.8326 12.4502 23.0072 12.4502C23.1818 12.4502 23.3546 12.4846 23.5159 12.5514C23.6772 12.6182 23.8237 12.7161 23.9472 12.8396C24.0706 12.963 24.1685 13.1095 24.2354 13.2708C24.3022 13.4321 24.3365 13.605 24.3365 13.7796C24.3365 13.9541 24.3022 14.127 24.2354 14.2883C24.1685 14.4496 24.0706 14.5961 23.9472 14.7196L17.8272 20.8396C17.3072 21.3596 16.4672 21.3596 15.9472 20.8396L9.82719 14.7196C9.70358 14.5962 9.60552 14.4497 9.53861 14.2884C9.4717 14.1271 9.43726 13.9542 9.43726 13.7796C9.43726 13.6049 9.4717 13.432 9.53861 13.2707C9.60552 13.1094 9.70358 12.9629 9.82719 12.8396C10.3472 12.3329 11.2005 12.3196 11.7205 12.8396Z" fill="white"/>
</g>
</svg>
